<mxfile host="65bd71144e">
    <diagram id="klB_UPQYbHtPxj-vPkdU" name="Page-1">
        <mxGraphModel dx="2307" dy="756" grid="1" gridSize="10" guides="1" tooltips="1" connect="1" arrows="1" fold="1" page="1" pageScale="1" pageWidth="850" pageHeight="1100" math="0" shadow="0">
            <root>
                <mxCell id="0"/>
                <mxCell id="1" parent="0"/>
                <mxCell id="2" value="&amp;lt;&amp;lt;Abstract&amp;gt;&amp;gt;&lt;div&gt;&lt;b&gt;MuseumGpsProxyInterface&lt;/b&gt;&lt;/div&gt;" style="swimlane;fontStyle=0;align=center;verticalAlign=top;childLayout=stackLayout;horizontal=1;startSize=40;horizontalStack=0;resizeParent=1;resizeParentMax=0;resizeLast=0;collapsible=0;marginBottom=0;html=1;whiteSpace=wrap;" parent="1" vertex="1">
                    <mxGeometry x="-30" y="300" width="480" height="115" as="geometry"/>
                </mxCell>
                <mxCell id="7" value="" style="line;strokeWidth=1;fillColor=none;align=left;verticalAlign=middle;spacingTop=-1;spacingLeft=3;spacingRight=3;rotatable=0;labelPosition=right;points=[];portConstraint=eastwest;" parent="2" vertex="1">
                    <mxGeometry y="40" width="480" height="8" as="geometry"/>
                </mxCell>
                <mxCell id="8" value="+m&lt;span style=&quot;color: rgb(63, 63, 63); text-align: center;&quot;&gt;useumGpsProxyInterface&lt;/span&gt;(): void&lt;div&gt;&lt;div&gt;+getCurrentLocation(userGpsPin: Array&amp;lt;float&amp;gt;): string&lt;/div&gt;&lt;div&gt;+getExhibitsLocation(museumExhibitsPin: Array&amp;lt;float&amp;gt;): List&amp;lt;string&amp;gt;&lt;/div&gt;&lt;/div&gt;&lt;div&gt;+calcDistanceToExhibit(userGpsPin: Array&amp;lt;float&amp;gt;, exhibitPin: Array&amp;lt;float&amp;gt;): Array&amp;lt;float&amp;gt;&lt;/div&gt;" style="text;html=1;strokeColor=none;fillColor=none;align=left;verticalAlign=middle;spacingLeft=4;spacingRight=4;overflow=hidden;rotatable=0;points=[[0,0.5],[1,0.5]];portConstraint=eastwest;whiteSpace=wrap;" parent="2" vertex="1">
                    <mxGeometry y="48" width="480" height="67" as="geometry"/>
                </mxCell>
                <mxCell id="10" value="&amp;lt;&amp;lt;Boundary&amp;gt;&amp;gt;&lt;div&gt;&lt;b&gt;MuseumGpsProxy&lt;/b&gt;&lt;/div&gt;" style="swimlane;fontStyle=0;align=center;verticalAlign=top;childLayout=stackLayout;horizontal=1;startSize=40;horizontalStack=0;resizeParent=1;resizeParentMax=0;resizeLast=0;collapsible=0;marginBottom=0;html=1;whiteSpace=wrap;" parent="1" vertex="1">
                    <mxGeometry x="140" y="490" width="480" height="115" as="geometry"/>
                </mxCell>
                <mxCell id="11" value="" style="line;strokeWidth=1;fillColor=none;align=left;verticalAlign=middle;spacingTop=-1;spacingLeft=3;spacingRight=3;rotatable=0;labelPosition=right;points=[];portConstraint=eastwest;" parent="10" vertex="1">
                    <mxGeometry y="40" width="480" height="8" as="geometry"/>
                </mxCell>
                <mxCell id="12" value="+MuseumGpsProxy(): void&lt;div&gt;&lt;div&gt;+getCurrentLocation(userGpsPin: Array&amp;lt;float&amp;gt;): string&lt;/div&gt;&lt;div&gt;&lt;span style=&quot;background-color: transparent;&quot;&gt;+&lt;/span&gt;&lt;span style=&quot;color: rgb(63, 63, 63);&quot;&gt;getExhibitsLocation&lt;/span&gt;&lt;span style=&quot;background-color: transparent;&quot;&gt;(&lt;/span&gt;&lt;span style=&quot;color: rgb(63, 63, 63);&quot;&gt;museumExhibitsPin&lt;/span&gt;&lt;span style=&quot;background-color: transparent;&quot;&gt;: Array&amp;lt;float&amp;gt;): List&amp;lt;string&amp;gt;&lt;/span&gt;&lt;/div&gt;&lt;/div&gt;&lt;div&gt;&lt;span style=&quot;color: rgb(63, 63, 63);&quot;&gt;+calcDistanceToExhibit(userGpsPin: Array&amp;lt;float&amp;gt;, exhibitPin: Array&amp;lt;float&amp;gt;): Array&amp;lt;float&amp;gt;&lt;/span&gt;&lt;span style=&quot;background-color: transparent;&quot;&gt;&lt;/span&gt;&lt;/div&gt;" style="text;html=1;strokeColor=none;fillColor=none;align=left;verticalAlign=middle;spacingLeft=4;spacingRight=4;overflow=hidden;rotatable=0;points=[[0,0.5],[1,0.5]];portConstraint=eastwest;whiteSpace=wrap;" parent="10" vertex="1">
                    <mxGeometry y="48" width="480" height="67" as="geometry"/>
                </mxCell>
                <mxCell id="13" value="&lt;b&gt;IndoorPositioningSystemLib&lt;/b&gt;" style="swimlane;fontStyle=0;align=center;verticalAlign=top;childLayout=stackLayout;horizontal=1;startSize=30;horizontalStack=0;resizeParent=1;resizeParentMax=0;resizeLast=0;collapsible=0;marginBottom=0;html=1;whiteSpace=wrap;" parent="1" vertex="1">
                    <mxGeometry x="480" y="300" width="430" height="90" as="geometry"/>
                </mxCell>
                <mxCell id="14" value="" style="line;strokeWidth=1;fillColor=none;align=left;verticalAlign=middle;spacingTop=-1;spacingLeft=3;spacingRight=3;rotatable=0;labelPosition=right;points=[];portConstraint=eastwest;" parent="13" vertex="1">
                    <mxGeometry y="30" width="430" height="8" as="geometry"/>
                </mxCell>
                <mxCell id="15" value="&lt;div&gt;&lt;font color=&quot;#000000&quot;&gt;+getIndoorLocation(gpsCoords: Array&amp;lt;float&amp;gt;): string&lt;/font&gt;&lt;/div&gt;&lt;div&gt;&lt;span style=&quot;background-color: transparent;&quot;&gt;+distanceCalc(&lt;/span&gt;&lt;span style=&quot;color: rgb(63, 63, 63);&quot;&gt;userGpsPin: Array&amp;lt;float&amp;gt;, exhibitPin: Array&amp;lt;float&amp;gt;&lt;/span&gt;&lt;span style=&quot;background-color: transparent;&quot;&gt;):&amp;nbsp;&lt;/span&gt;&lt;span style=&quot;color: rgb(63, 63, 63); background-color: transparent;&quot;&gt;Array&amp;lt;float&amp;gt;&lt;/span&gt;&lt;/div&gt;" style="text;html=1;strokeColor=none;fillColor=none;align=left;verticalAlign=middle;spacingLeft=4;spacingRight=4;overflow=hidden;rotatable=0;points=[[0,0.5],[1,0.5]];portConstraint=eastwest;whiteSpace=wrap;" parent="13" vertex="1">
                    <mxGeometry y="38" width="430" height="52" as="geometry"/>
                </mxCell>
                <mxCell id="16" value="&amp;lt;&amp;lt;Controller&amp;gt;&amp;gt;&lt;div&gt;GpsSystemController&lt;/div&gt;" style="swimlane;fontStyle=0;align=center;verticalAlign=top;childLayout=stackLayout;horizontal=1;startSize=40;horizontalStack=0;resizeParent=1;resizeParentMax=0;resizeLast=0;collapsible=0;marginBottom=0;html=1;whiteSpace=wrap;" parent="1" vertex="1">
                    <mxGeometry x="-30" y="120" width="210" height="90" as="geometry"/>
                </mxCell>
                <mxCell id="17" value="" style="line;strokeWidth=1;fillColor=none;align=left;verticalAlign=middle;spacingTop=-1;spacingLeft=3;spacingRight=3;rotatable=0;labelPosition=right;points=[];portConstraint=eastwest;" parent="16" vertex="1">
                    <mxGeometry y="40" width="210" height="8" as="geometry"/>
                </mxCell>
                <mxCell id="18" value="&lt;div&gt;&lt;font color=&quot;#000000&quot;&gt;+getUserLocation(): Array&amp;lt;float&amp;gt;&lt;/font&gt;&lt;/div&gt;&lt;div&gt;&lt;span style=&quot;color: rgb(0, 0, 0);&quot;&gt;+getExhibitLocation(): Array&amp;lt;float&amp;gt;&lt;/span&gt;&lt;/div&gt;" style="text;html=1;strokeColor=none;fillColor=none;align=left;verticalAlign=middle;spacingLeft=4;spacingRight=4;overflow=hidden;rotatable=0;points=[[0,0.5],[1,0.5]];portConstraint=eastwest;whiteSpace=wrap;" parent="16" vertex="1">
                    <mxGeometry y="48" width="210" height="42" as="geometry"/>
                </mxCell>
                <mxCell id="22" style="edgeStyle=orthogonalEdgeStyle;html=1;exitX=1;exitY=0.5;exitDx=0;exitDy=0;entryX=0.5;entryY=0.025;entryDx=0;entryDy=0;entryPerimeter=0;strokeColor=default;rounded=0;curved=0;" parent="1" source="16" target="2" edge="1">
                    <mxGeometry relative="1" as="geometry"/>
                </mxCell>
                <mxCell id="23" value="" style="endArrow=block;html=1;rounded=0;align=center;verticalAlign=bottom;endFill=0;labelBackgroundColor=none;endSize=8;exitX=0.5;exitY=0;exitDx=0;exitDy=0;entryX=0.854;entryY=1.006;entryDx=0;entryDy=0;entryPerimeter=0;" parent="1" source="10" target="8" edge="1">
                    <mxGeometry relative="1" as="geometry">
                        <mxPoint x="340" y="460" as="sourcePoint"/>
                        <mxPoint x="500" y="460" as="targetPoint"/>
                    </mxGeometry>
                </mxCell>
                <mxCell id="24" value="" style="resizable=0;html=1;align=center;verticalAlign=top;labelBackgroundColor=none;" parent="23" connectable="0" vertex="1">
                    <mxGeometry relative="1" as="geometry"/>
                </mxCell>
                <mxCell id="25" value="" style="endArrow=none;html=1;rounded=0;align=center;verticalAlign=top;endFill=0;labelBackgroundColor=none;entryX=0.216;entryY=1.013;entryDx=0;entryDy=0;entryPerimeter=0;" parent="1" target="15" edge="1">
                    <mxGeometry relative="1" as="geometry">
                        <mxPoint x="573" y="490" as="sourcePoint"/>
                        <mxPoint x="700" y="400" as="targetPoint"/>
                    </mxGeometry>
                </mxCell>
                <mxCell id="26" value="adaptee" style="resizable=0;html=1;align=left;verticalAlign=bottom;labelBackgroundColor=none;" parent="25" connectable="0" vertex="1">
                    <mxGeometry x="-1" relative="1" as="geometry"/>
                </mxCell>
            </root>
        </mxGraphModel>
    </diagram>
</mxfile>